<svg xmlns="http://www.w3.org/2000/svg" viewBox="488 -318 1000 660">
  <style type="text/css">.st0{fill:#024662;}.st1{fill:#0082AD;}</style>
  <path class="st0" d="M508.6 275l14.9 45.1 14.9-45.1h19.8L533 340.2h-20.1L488 275H508.6z"/><path class="st0" d="M616.5 275v14.9h-33.9v10.2h30.8V315h-30.8v10.3h34.9v14.9h-54.2V275H616.5z"/><path class="st0" d="M664.9 340.2l-8.6-17.6H646v17.6h-19.3V275h30.4c17.5 0 27.5 8.4 27.5 23.1 0 9.7-3.9 16.7-11 20.7l13.2 21.3H664.9zM646 307.7h11.1c5.8 0 9.1-3.2 9.1-9 0-5.7-3.3-8.8-9.1-8.8H646V307.7z"/><path class="st0" d="M725.6 290.5c-8.8 0-15.5 7.2-15.5 16.7 0 9.6 6.7 16.8 15.5 16.8 5 0 11.1-3 15.5-7.5l11.2 11.9c-7.1 7.6-17.8 12.5-27.6 12.5 -19.8 0-34.4-14.3-34.4-33.6 0-19 14.9-33 35-33 9.8 0 20.4 4.5 27 11.5l-11.2 13.2C737.1 294 731 290.5 725.6 290.5z"/><path class="st0" d="M801.2 329.8h-26.3l-3.9 10.4h-19.9l27.8-65.2h19.9l26.9 65.2H805L801.2 329.8zM796.1 315.6l-7.8-21.3 -8 21.3H796.1z"/><path class="st0" d="M851 275l15.7 36.1 15.7-36.1h20.7v65.2h-16.9l-0.1-38.6 -13.1 32.2h-12.6l-13.1-32.2v38.6h-17V275H851z"/><path class="st0" d="M939.3 289.3c-3.3 0-5.4 1.1-5.4 3.5 0 9.6 34 3.9 34 27.4 0 13.8-12.3 20.4-26.9 20.4 -11.1 0-23.1-3.9-31.3-10.3l7.2-14.7c6.7 5.7 17.6 9.9 24.3 9.9 4.1 0 6.7-1.4 6.7-4.4 0-9.8-34-3.6-34-26.6 0-12.6 10.7-20.5 27-20.5 9.9 0 20.2 3 27.2 7.5l-7.2 14.9C954.2 292.8 944.8 289.3 939.3 289.3z"/><path class="st0" d="M1027.3 275v15.4h-19v49.7h-19.4v-49.7H970V275H1027.3z"/><path class="st1" d="M1085.9 281.7c-14.7 0-26.5 11.4-26.5 25.8 0 14.3 11.8 25.9 26.5 25.9 7.2 0 14.1-3 19.2-7.8l4.6 4.9c-6.4 6-15.2 9.8-24.2 9.8 -18.8 0-33.6-14.5-33.6-32.9 0-18.2 15.1-32.6 33.9-32.6 8.9 0 17.6 3.6 23.8 9.5l-4.5 5.4C1100.1 284.8 1093 281.7 1085.9 281.7z"/><path class="st1" d="M1183.4 307.6c0 18.3-15.1 32.8-34 32.8 -19.1 0-34.1-14.5-34.1-32.8 0-18.3 15.1-32.7 34.1-32.7C1168.4 274.9 1183.4 289.3 1183.4 307.6zM1122.8 307.6c0 14.4 12.1 26 26.6 26 14.5 0 26.4-11.6 26.4-26 0-14.4-11.9-25.8-26.4-25.8C1134.9 281.8 1122.8 293.2 1122.8 307.6z"/><path class="st1" d="M1204.7 275.1l39 52.9v-52.9h7.3v65.1h-7.6l-39-52.8v52.8h-7.4v-65.1H1204.7z"/><path class="st1" d="M1289.7 282.1c-8.4 0-13.8 3.3-13.8 8.9 0 16.9 36.6 8.1 36.5 31.7 0 10.8-9.6 17.7-23.5 17.7 -9.5 0-18.8-4.1-24.9-9.9l3.3-6.4c6 5.8 14.3 9.1 21.7 9.1 9.4 0 15.2-3.8 15.2-10.1 0.1-17.4-36.5-8.2-36.5-31.5 0-10.2 9-16.7 22.5-16.7 7.5 0 15.2 2.4 20.6 6l-3.2 6.6C1301.7 283.7 1294.9 282.1 1289.7 282.1z"/><path class="st1" d="M1353.5 333.7c12.4 0 19.8-7.4 19.8-20.3v-38.3h7.4v38.3c0 17-10.2 27-27.2 27 -17.1 0-27.4-10-27.4-27v-38.3h7.4v38.3C1333.5 326.2 1341.1 333.7 1353.5 333.7z"/><path class="st1" d="M1406.3 275.1v58.2h28.5v6.9h-36v-65.1H1406.3z"/><path class="st1" d="M1488 275.1v6.9h-21.3v58.2h-7.4V282h-21.2v-6.9H1488z"/><path class="st1" d="M1301.1 35.7c-24.1 23.4-56.9 37.7-93.1 37.7 -68.8 0-125.4-51.9-132.6-118.7l-67.2 146.8c47.1 58.2 119.1 95.5 199.9 95.5 70.8 0 134.7-28.5 181.1-74.8L1301.1 35.7z"/><path class="st0" d="M1208-317c-12.1 0-24 0.8-35.6 2.5 -83.3 11.5-153.7 62.9-191.6 134.2 -4.5 8.5-8.5 17.2-12 26.3L882.4 34.8 753.8-246.2l-13.8-29.9c-16.2-23.3-43.2-38.4-73.8-38.4H586l13.5 29.5 69.1 150.9 145.5 317.9 6 13.2 124.3 0.1v-0.1h-0.1l137-299.4c3.1-9.3 7.2-18.3 12.2-26.5 0.2-0.4 0.4-0.8 0.7-1.2 9.9-15.8 22.9-29.4 38.2-40 21.5-14.7 47.5-23.4 75.6-23.4 37.1 0 70.7 15.1 94.9 39.5l88-86.6C1344.3-287.7 1279.5-317 1208-317z"/>
</svg>
