<svg xmlns="http://www.w3.org/2000/svg" width="1000" height="640" viewBox="0 0 1000 640">
	<path d="M888.6 439c-30.1 29.1-70.3 47.2-115.5 47.2 -85.3 0-155.6-64.3-164.7-147.6l-83.3 182.7c58.2 72.3 147.6 118.5 248 118.5 88.4 0 167.7-35.1 224.9-93.4L888.6 439z" fill="#008CB2"/><path d="M772.1 0.2c-15.1 0-30.1 1-44.2 3C624.5 17.3 537.1 81.5 490 169.9c-6 11-11 21.1-15.1 33.1L367.5 437 207.8 88.6l-17.1-37.1C170.7 22.3 136.5 3.2 99.4 3.2H0l16.1 37.1 86.3 187.8 180.7 395.6 7 16.1h154.6l0 0 0 0 170.7-372.5c4-12 9-23.1 15.1-33.1 0-1 1-1 1-2 12-20.1 28.1-36.1 47.2-49.2 27.1-18.1 59.2-29.1 94.4-29.1 46.2 0 87.3 19.1 117.5 49.2L1000 95.6C941.8 36.4 861.4 0.2 772.1 0.2z" fill="#004B66"/>
</svg>
